<svg width="359" height="308" viewBox="0 0 359 308" fill="none" xmlns="http://www.w3.org/2000/svg">
<path d="M63.0919 290.619C63.0919 290.619 7.26179 272.975 9.45454 220.21C11.7323 165.406 37.4009 142.414 37.4009 142.414C37.4009 142.414 30.1111 112.43 41.7506 85.1774C54.8579 54.4903 90.1567 22.2838 150.569 15.9133C229.835 7.55628 251.158 27.72 274.58 60.7787C301.641 98.9707 281.535 167.444 281.535 167.444C281.535 167.444 317.889 163.969 338.582 198.167C369.303 248.931 327.063 288.196 327.063 288.196" fill="url(#paint0_linear_939_4533)"/>
<path d="M209.205 71.0351C215.618 78.4271 226.036 78.4579 232.48 71.1018C238.924 63.7509 238.95 51.7954 232.538 44.4085C226.125 37.0165 215.707 36.9857 209.263 44.3418C202.824 51.6927 202.797 63.6431 209.205 71.0351Z" fill="url(#paint1_linear_939_4533)"/>
<path d="M156.516 246.965C156.516 246.965 154.601 253.248 153.366 254.156C152.135 255.065 146.04 258.54 145.767 259.86C145.494 261.184 145.494 262.673 145.494 262.673V264.824C145.494 264.824 150.01 266.312 153.433 265.732C156.856 265.152 158.432 264.408 160.074 262.508C161.716 260.609 162.813 259.865 162.813 259.865L163.086 261.436L168.764 258.458L168.353 254.074L167.941 247.211C167.945 247.211 165.005 249.526 156.516 246.965Z" fill="url(#paint2_linear_939_4533)"/>
<path d="M151.862 264.238C149.808 264.403 146.958 263.484 145.499 262.919V264.818C145.499 264.818 150.014 266.307 153.438 265.727C156.861 265.147 158.436 264.403 160.079 262.503C161.721 260.604 162.817 259.86 162.817 259.86L163.09 261.43L168.769 258.453L168.469 255.24C166.053 256.651 161.555 259.398 159.6 261.348C156.857 264.074 154.346 264.038 151.862 264.238Z" fill="black"/>
<path d="M202.443 246.965C202.443 246.965 204.359 253.248 205.594 254.156C206.824 255.065 212.919 258.54 213.192 259.86C213.465 261.184 213.465 262.673 213.465 262.673V264.824C213.465 264.824 208.95 266.312 205.526 265.732C202.103 265.152 200.528 264.408 198.886 262.508C197.243 260.609 196.147 259.865 196.147 259.865L195.874 261.436L190.191 258.458L190.602 254.074L191.014 247.211C191.014 247.211 193.954 249.526 202.443 246.965Z" fill="url(#paint3_linear_939_4533)"/>
<path d="M207.097 264.238C209.151 264.403 212.002 263.484 213.461 262.919V264.818C213.461 264.818 208.945 266.307 205.522 265.727C202.099 265.147 200.523 264.403 198.881 262.503C197.239 260.604 196.142 259.86 196.142 259.86L195.869 261.43L190.186 258.453L190.486 255.24C192.903 256.651 197.4 259.398 199.355 261.348C202.103 264.074 204.614 264.038 207.097 264.238ZM170.044 59.9316L168.764 55.0652C168.764 55.0652 166.71 49.0182 166.37 46.8211C166.026 44.624 164.589 36.5339 166.643 31.7445C167.995 28.5926 172.121 27.6635 175.334 27.5814C178.278 27.5095 182.171 28.8134 182.999 34.4138C183.684 39.0441 183.89 44.1518 183.89 46.3488C183.89 48.5459 182.315 54.7521 182.315 54.7521L180.869 60.0805L175.557 66.5844L170.044 59.9316Z" fill="black"/>
<path d="M166.335 36.113C167.082 35.769 166.934 30.2815 173.808 31.3133C180.686 32.34 183.076 35.9436 184.423 33.1972C185.77 30.4509 185.917 30.1121 185.917 30.1121C185.917 30.1121 184.275 27.1964 182.928 26.1697C181.147 24.8094 173.808 21.7089 168.277 24.9685C162.746 28.2282 163.641 34.2291 163.641 34.2291" fill="white"/>
<path d="M216.271 65.9017C215.725 63.7046 194.026 43.2894 194.026 43.2894C194.026 43.2894 191.081 46.1692 190.262 47.8426C189.444 49.5161 188.074 53.5766 188.074 53.5766L200.573 63.3812C200.573 63.3812 188.531 66.0044 187.528 65.6912C186.526 65.3781 184.606 63.91 184.606 63.91L180.865 59.9316L178.31 64.7467L175.567 66.5844L172.823 64.7467L170.044 60.0343L166.527 63.91C166.527 63.91 164.612 65.373 163.605 65.6912C162.602 66.0044 151.393 63.5506 151.393 63.5506L163.059 53.5714C163.059 53.5714 161.69 49.5161 160.871 47.8375C160.047 46.164 157.107 43.2842 157.107 43.2842C157.107 43.2842 135.408 63.6995 134.862 65.8966C134.316 68.0936 134.45 71.3944 135.685 72.6469C136.916 73.9046 154.852 83.0624 154.852 83.0624C154.852 83.0624 158.065 116.532 157.317 117.82C155.859 120.33 156.36 121.953 156.36 121.953C156.36 121.953 164.598 124.545 174.26 125.048V125.115C174.703 125.115 175.141 125.11 175.575 125.099C176.01 125.11 176.448 125.115 176.891 125.115V125.048C186.553 124.545 194.791 121.953 194.791 121.953C194.791 121.953 195.292 120.33 193.833 117.82C193.086 116.532 196.299 83.0624 196.299 83.0624C196.299 83.0624 214.231 73.9046 215.466 72.6469C216.678 71.3944 216.817 68.0988 216.271 65.9017Z" fill="url(#paint4_linear_939_4533)"/>
<path d="M160.656 118.77C157.805 109.628 154.525 78.6427 154.525 78.6427L153.934 82.6056L154.838 83.0676C154.838 83.0676 158.051 116.537 157.304 117.825C155.845 120.336 156.346 121.958 156.346 121.958C156.346 121.958 159.671 123.005 164.571 123.898C164.571 123.898 161.251 120.685 160.656 118.77Z" fill="url(#paint5_linear_939_4533)"/>
<path d="M188.07 53.5715L202.363 64.4079L206.847 65.6091" fill="url(#paint6_linear_939_4533)"/>
<path d="M163.05 53.5715L149.441 64.7519L144.658 65.7837" fill="url(#paint7_linear_939_4533)"/>
<path d="M216.481 69.993C210.216 74.7875 196.532 79.4999 196.532 79.4999L196.281 83.0676C196.281 83.0676 214.213 73.9097 215.448 72.652C216.003 72.0874 216.334 71.1018 216.481 69.993Z" fill="url(#paint8_linear_939_4533)"/>
<path d="M154.525 78.6427C154.525 78.6427 139.471 72.801 134.795 70.8452C134.978 71.5946 135.265 72.2363 135.672 72.6521C136.902 73.9098 154.838 83.0676 154.838 83.0676L154.525 78.6427Z" fill="url(#paint9_linear_939_4533)"/>
<path d="M168.205 52.8374C168.205 52.8374 166.854 53.2635 166.509 52.6321C166.169 52.0058 164.043 47.7657 164.522 46.6671C165.001 45.5686 166.232 45.5686 166.232 45.5686C166.232 45.5686 167.726 51.8929 168.205 52.8374Z" fill="#1A0C4D"/>
<path d="M158.638 44.778C158.436 44.6805 160.28 39.6755 160.897 39.1262C161.515 38.577 171.781 36.0616 172.398 36.4569C173.016 36.8522 172.738 38.0277 172.738 38.0277C172.738 38.0277 168.563 46.2718 169.454 46.2718C170.344 46.2718 171.642 45.9587 172.327 45.5634C173.011 45.1733 174.242 44.3058 174.994 44.6189C175.746 44.932 175.678 45.4043 174.994 46.1897C174.309 46.9751 171.297 49.0182 169.861 49.5674C168.424 50.1167 166.576 51.1382 165.274 51.3744C163.972 51.6105 162.607 51.6875 162.607 51.6875C162.607 51.6875 159.461 45.1733 158.638 44.778Z" fill="white"/>
<path d="M157.774 122.954L158.141 128.816C158.141 128.816 164.164 131.85 175.025 131.85C185.886 131.85 194.097 128.816 194.097 128.816L194.008 122.117C193.999 122.117 179.218 127.979 157.774 122.954Z" fill="url(#paint10_linear_939_4533)"/>
<path d="M180.493 131.172C180.493 131.521 180.247 131.798 179.948 131.798H173.011C172.707 131.798 172.465 131.516 172.465 131.172V125.623C172.465 125.274 172.711 124.997 173.011 124.997H179.948C180.252 124.997 180.493 125.279 180.493 125.623V131.172Z" fill="url(#paint11_radial_939_4533)"/>
<path d="M158.136 128.816C158.136 128.816 156.485 203.203 155.926 214.522C155.917 214.702 155.626 247.088 155.626 247.088C155.626 247.088 161.748 249.167 165.619 248.412C168.152 247.914 168.357 247.422 168.357 247.422L175.204 160.345L177.258 160.016L190.124 247.427C190.124 247.427 193.547 248.997 197.789 248.582C199.369 248.428 202.649 247.011 202.649 247.011L194.093 128.821C194.093 128.816 176.251 135.048 158.136 128.816Z" fill="black"/>
<path d="M166.518 63.91L163.869 65.527L169.588 64.7467L175.562 66.5844L170.147 59.9932L166.518 63.91ZM175.643 66.4664L180.86 64.3309L187.64 65.8247L184.611 63.8073L180.86 59.9316L175.643 66.4664Z" fill="white"/>
<path d="M183.004 51.6105C182.923 51.8261 184.373 52.0828 184.713 50.666C185.054 49.2543 185.81 46.5029 185.604 45.4865C185.398 44.4649 183.894 44.7781 183.894 44.7781C183.894 44.7781 183.55 50.1167 183.004 51.6105Z" fill="#1A0C4D"/>
<path d="M192.496 44.778C192.697 44.6805 190.853 39.6755 190.236 39.1262C189.618 38.577 179.352 36.0616 178.735 36.4569C178.117 36.8522 178.395 38.0277 178.395 38.0277C178.395 38.0277 182.57 46.2718 181.679 46.2718C180.789 46.2718 179.491 45.9587 178.806 45.5634C178.122 45.1733 176.891 44.3058 176.135 44.6189C175.383 44.932 175.45 45.4043 176.135 46.1897C176.82 46.9751 179.831 49.0182 181.268 49.5674C182.704 50.1167 184.552 51.1382 185.855 51.3744C187.157 51.6105 188.526 51.6875 188.526 51.6875C188.526 51.6875 191.672 45.1733 192.496 44.778Z" fill="white"/>
<path d="M179.263 37.8994L176.435 39.2597C176.435 39.2597 176.023 40.7279 176.023 41.8777C176.023 43.0276 176.341 44.6497 176.341 44.6497L181.679 46.2719C181.679 46.2719 177.209 43.4434 179.263 37.8994Z" fill="url(#paint12_linear_939_4533)"/>
<path d="M171.96 37.8994L174.788 39.2597C174.788 39.2597 175.2 40.7279 175.2 41.8777C175.2 43.0276 174.882 44.6497 174.882 44.6497L169.543 46.2719C169.543 46.2719 174.014 43.4434 171.96 37.8994Z" fill="url(#paint13_linear_939_4533)"/>
<path d="M174.197 38.9415H177.119V44.2801H174.197V38.9415Z" fill="url(#paint14_linear_939_4533)"/>
<path d="M174.197 40.5687C174.197 40.2581 174.277 39.9544 174.428 39.696C174.578 39.4377 174.792 39.2364 175.042 39.1175C175.293 38.9986 175.568 38.9675 175.834 39.0281C176.099 39.0887 176.343 39.2383 176.535 39.458C176.726 39.6777 176.857 39.9576 176.909 40.2623C176.962 40.567 176.935 40.8828 176.831 41.1698C176.728 41.4569 176.552 41.7022 176.327 41.8748C176.102 42.0474 175.837 42.1395 175.566 42.1395C175.203 42.1387 174.856 41.973 174.599 41.6786C174.342 41.3841 174.198 40.9851 174.197 40.5687Z" fill="url(#paint15_linear_939_4533)"/>
<path d="M156.44 41.3079C156.44 36.1797 160.065 32.0217 164.536 32.0217C169.006 32.0217 172.631 36.1797 172.631 41.3079C172.631 46.4361 169.006 50.5941 164.536 50.5941C160.065 50.5941 156.44 46.4361 156.44 41.3079Z" fill="url(#paint16_linear_939_4533)"/>
<path d="M158.53 41.3079C158.53 37.5041 161.22 34.419 164.536 34.419C167.852 34.419 170.541 37.5041 170.541 41.3079C170.541 45.1117 167.852 48.1969 164.536 48.1969C161.22 48.1969 158.53 45.1117 158.53 41.3079Z" fill="url(#paint17_linear_939_4533)"/>
<path d="M178.668 41.8778C178.668 36.7496 182.292 32.5916 186.763 32.5916C191.234 32.5916 194.858 36.7496 194.858 41.8778C194.858 47.006 191.234 51.164 186.763 51.164C182.292 51.164 178.668 47.006 178.668 41.8778Z" fill="url(#paint18_linear_939_4533)"/>
<path d="M180.753 41.8778C180.753 38.074 183.442 34.9888 186.758 34.9888C190.074 34.9888 192.764 38.074 192.764 41.8778C192.764 45.6816 190.074 48.7667 186.758 48.7667C183.442 48.7718 180.753 45.6867 180.753 41.8778Z" fill="url(#paint19_linear_939_4533)"/>
<path d="M175.642 66.4664L177.236 84.4587L175.804 106.881L177.598 124.714L175.562 125.11L173.772 106.866L175.204 84.7L173.611 65.9531L175.642 66.4664Z" fill="url(#paint20_linear_939_4533)"/>
<path d="M185.89 295.105C224.71 295.105 256.179 292.028 256.179 288.232C256.179 284.435 224.71 281.358 185.89 281.358C147.071 281.358 115.602 284.435 115.602 288.232C115.602 292.028 147.071 295.105 185.89 295.105Z" fill="url(#paint21_linear_939_4533)"/>
<path d="M146.054 287.184L147.602 281.245C147.602 281.245 147.96 279.402 151.115 279.402H212.718C212.718 279.402 215.636 279.253 216.468 281.722C217.578 285.003 217.896 286.64 217.896 286.64C217.896 286.64 218.907 289.166 215.157 289.166H147.723C147.723 289.166 146.054 289.299 146.054 287.184Z" fill="url(#paint22_linear_939_4533)"/>
<path d="M147.718 289.161H215.152C217.779 289.161 218.07 287.924 218.007 287.179H146.049C146.054 289.299 147.718 289.161 147.718 289.161Z" fill="url(#paint23_linear_939_4533)"/>
<path d="M256.201 261.99C256.201 266.512 253.002 270.183 249.059 270.183H114.308C110.366 270.183 107.166 266.512 107.166 261.99V164.036C107.166 159.513 110.366 155.843 114.308 155.843H249.059C253.006 155.843 256.201 159.513 256.201 164.036V261.99Z" fill="url(#paint24_linear_939_4533)"/>
<path d="M114.469 163.856H249.695V252.16H114.469V163.856Z" fill="url(#paint25_linear_939_4533)"/>
<path d="M206.551 237.971C206.551 241.908 203.768 245.101 200.336 245.101H161.372C157.939 245.101 155.156 241.908 155.156 237.971V231.329C155.156 227.391 157.939 224.198 161.372 224.198H200.336C203.768 224.198 206.551 227.391 206.551 231.329V237.971Z" fill="url(#paint26_linear_939_4533)"/>
<path d="M206.551 236.251C206.551 240.189 203.768 243.382 200.336 243.382H161.372C157.939 243.382 155.156 240.189 155.156 236.251V229.609C155.156 225.672 157.939 222.479 161.372 222.479H200.336C203.768 222.479 206.551 225.672 206.551 229.609V236.251Z" fill="url(#paint27_linear_939_4533)"/>
<path d="M169.057 238V229.273H172.108C172.716 229.273 173.217 229.378 173.612 229.588C174.007 229.795 174.301 230.075 174.494 230.428C174.688 230.777 174.784 231.165 174.784 231.591C174.784 231.966 174.717 232.276 174.584 232.52C174.453 232.764 174.28 232.957 174.064 233.099C173.851 233.241 173.619 233.347 173.369 233.415V233.5C173.636 233.517 173.905 233.611 174.175 233.781C174.445 233.952 174.67 234.196 174.852 234.514C175.034 234.832 175.125 235.222 175.125 235.682C175.125 236.119 175.026 236.513 174.827 236.862C174.628 237.212 174.314 237.489 173.885 237.693C173.456 237.898 172.898 238 172.21 238H169.057ZM170.114 237.062H172.21C172.901 237.062 173.391 236.929 173.68 236.662C173.973 236.392 174.119 236.065 174.119 235.682C174.119 235.386 174.044 235.114 173.893 234.864C173.743 234.611 173.528 234.409 173.25 234.259C172.972 234.105 172.642 234.028 172.261 234.028H170.114V237.062ZM170.114 233.108H172.074C172.392 233.108 172.679 233.045 172.935 232.92C173.193 232.795 173.398 232.619 173.548 232.392C173.702 232.165 173.778 231.898 173.778 231.591C173.778 231.207 173.645 230.882 173.378 230.615C173.111 230.345 172.688 230.21 172.108 230.21H170.114V233.108ZM182.589 229.273H183.646V235.051C183.646 235.648 183.505 236.18 183.224 236.649C182.945 237.115 182.552 237.483 182.043 237.753C181.535 238.02 180.938 238.153 180.254 238.153C179.569 238.153 178.972 238.02 178.464 237.753C177.955 237.483 177.56 237.115 177.279 236.649C177.001 236.18 176.862 235.648 176.862 235.051V229.273H177.918V234.966C177.918 235.392 178.012 235.771 178.2 236.104C178.387 236.433 178.654 236.693 179.001 236.884C179.35 237.071 179.768 237.165 180.254 237.165C180.739 237.165 181.157 237.071 181.506 236.884C181.856 236.693 182.123 236.433 182.308 236.104C182.495 235.771 182.589 235.392 182.589 234.966V229.273ZM185.006 229.273H186.216L188.637 233.347H188.739L191.159 229.273H192.37L189.216 234.403V238H188.159V234.403L185.006 229.273Z" fill="white"/>
<path d="M179.782 257.986C179.782 256.78 180.637 255.799 181.688 255.799C182.74 255.799 183.595 256.78 183.595 257.986C183.595 259.192 182.74 260.173 181.688 260.173C181.183 260.172 180.698 259.942 180.341 259.532C179.983 259.122 179.782 258.566 179.782 257.986Z" stroke="#231F20" stroke-width="3.8985" stroke-miterlimit="10" stroke-linecap="round" stroke-linejoin="round"/>
<path d="M107.198 262.719C107.52 266.903 110.581 270.183 114.308 270.183H249.059C252.792 270.183 255.853 266.903 256.17 262.719H107.198Z" fill="url(#paint28_linear_939_4533)"/>
<path d="M175.455 270.183H188.548V282.611H175.455V270.183Z" fill="url(#paint29_linear_939_4533)"/>
<path d="M200.394 182.018C200.394 182.941 200.074 183.826 199.505 184.479C198.936 185.131 198.164 185.498 197.36 185.498H173.374C172.569 185.498 171.797 185.131 171.228 184.479C170.659 183.826 170.34 182.941 170.34 182.018C170.34 181.095 170.659 180.209 171.228 179.557C171.797 178.904 172.569 178.537 173.374 178.537H197.36C198.164 178.537 198.936 178.904 199.505 179.557C200.074 180.209 200.394 181.095 200.394 182.018Z" fill="url(#paint30_linear_939_4533)"/>
<path d="M198.487 191.268C198.487 193.321 197.033 194.99 195.243 194.99H175.898C174.108 194.99 172.653 193.321 172.653 191.268C172.653 189.215 174.108 187.546 175.898 187.546H195.243C197.038 187.546 198.487 189.215 198.487 191.268Z" fill="url(#paint31_linear_939_4533)"/>
<path d="M168.908 211.545C168.908 208.737 170.881 206.458 173.311 206.458C175.746 206.458 177.715 208.737 177.715 211.545C177.715 214.353 175.741 216.632 173.311 216.632C170.881 216.632 168.908 214.358 168.908 211.545Z" fill="url(#paint32_linear_939_4533)"/>
<path d="M184.561 211.545C184.561 208.737 186.535 206.458 188.965 206.458C191.399 206.458 193.368 208.737 193.368 211.545C193.368 214.353 191.395 216.632 188.965 216.632C186.535 216.632 184.561 214.358 184.561 211.545Z" fill="url(#paint33_linear_939_4533)"/>
<path d="M161.766 182.018H158.315C158.315 182.018 155.16 182.018 155.16 178.399C155.16 175.94 156.825 174.713 158.463 174.713H164.504C164.504 174.713 166.706 174.651 167.601 178.876C168.661 183.902 171.825 196.694 171.825 196.694H193.372C193.372 196.694 196.527 196.833 196.527 200.246C196.527 203.66 193.847 204.204 193.847 204.204H169.445C169.445 204.204 166.943 204.065 166.527 201.54C166.111 199.019 161.766 182.018 161.766 182.018Z" fill="url(#paint34_linear_939_4533)"/>
<path d="M321.219 284.376C321.219 286.496 308.635 288.216 293.116 288.216C277.592 288.216 265.013 286.496 265.013 284.376C265.013 282.256 277.596 280.537 293.116 280.537C308.635 280.537 321.219 282.256 321.219 284.376Z" fill="url(#paint35_linear_939_4533)"/>
<path d="M323.004 181.628C323.004 181.628 323.783 179.964 323.908 179.713C324.034 179.461 324.665 179.107 325.416 178.773C326.168 178.44 327.318 178.373 327.435 178.465C327.547 178.558 327.699 178.589 327.824 178.979C327.945 179.364 327.864 179.769 327.864 179.769C327.864 179.769 328.209 180.165 328.075 180.652C328.075 180.652 328.383 181.042 328.151 181.566C328.151 181.566 328.442 181.956 328.249 182.321C328.249 182.321 327.618 182.675 327.417 182.885C327.215 183.096 325.859 183.732 324.477 184.112C324.472 184.117 323.058 183.974 323.004 181.628Z" fill="white"/>
<path d="M326.629 183.327C326.566 183.358 326.504 183.383 326.437 183.414C326.401 183.429 326.369 183.445 326.334 183.46C326.298 183.476 326.266 183.491 326.231 183.506C326.28 183.701 326.329 183.876 326.378 184.03L326.821 184.015C326.763 183.83 326.696 183.594 326.629 183.327ZM326.293 182.059C326.343 182.172 326.383 182.29 326.423 182.403C326.432 182.434 326.441 182.459 326.45 182.485C326.459 182.516 326.468 182.546 326.477 182.572C326.383 182.018 326.329 181.391 326.383 180.775C326.378 180.791 326.374 180.806 326.365 180.822C326.36 180.827 326.36 180.832 326.356 180.837C326.351 180.842 326.352 180.847 326.347 180.852L326.343 180.858C326.338 180.863 326.334 180.868 326.334 180.873L326.329 180.878L326.316 180.894C326.281 180.934 326.242 180.968 326.199 180.996C326.164 181.017 326.128 181.037 326.083 181.058C326.074 181.063 326.065 181.068 326.052 181.073H326.047C326.038 181.078 326.025 181.078 326.016 181.083C326.007 181.089 325.998 181.089 325.989 181.094L325.944 181.109C325.94 181.212 325.94 181.314 325.944 181.412L325.953 181.422C325.967 181.438 325.98 181.458 325.993 181.474L326.029 181.53C326.047 181.556 326.065 181.587 326.079 181.612C326.092 181.633 326.101 181.653 326.114 181.674C326.119 181.679 326.119 181.684 326.123 181.684C326.137 181.705 326.15 181.73 326.159 181.756C326.199 181.828 326.235 181.905 326.266 181.982C326.271 182.007 326.28 182.033 326.293 182.059ZM335.284 183.861L335.261 183.727L335.145 182.962C335.136 182.921 334.97 181.992 334.527 180.868C334.111 179.821 333.364 178.409 332.169 177.613C331.395 177.1 330.527 176.905 329.578 177.028C329.184 177.079 328.772 177.187 328.347 177.352C327.877 177.531 327.47 177.783 327.139 178.091C327.018 178.204 326.906 178.322 326.803 178.45C326.678 178.604 326.571 178.768 326.472 178.948C326.387 179.107 326.311 179.271 326.244 179.446C326.15 179.697 326.079 179.959 326.034 180.226C325.98 180.519 325.953 180.817 325.944 181.114C325.94 181.217 325.94 181.32 325.944 181.417C325.955 181.934 326.012 182.448 326.114 182.952C326.155 183.147 326.195 183.332 326.24 183.506C326.289 183.701 326.338 183.876 326.387 184.03C326.392 184.04 326.392 184.051 326.396 184.061C326.468 184.297 326.535 184.477 326.571 184.569C326.589 184.61 326.598 184.636 326.602 184.646L326.669 184.81L331.014 184.697L335.4 184.584L335.284 183.861ZM334.518 184.348L332.863 184.333L326.911 184.276C326.888 184.22 326.866 184.143 326.839 184.061L326.826 184.015C326.768 183.835 326.701 183.599 326.633 183.332C326.624 183.291 326.611 183.25 326.602 183.204C326.58 183.111 326.557 183.014 326.539 182.911C326.517 182.803 326.499 182.69 326.477 182.577C326.383 182.023 326.329 181.397 326.383 180.781L326.396 180.657V180.652C326.437 180.303 326.508 179.959 326.629 179.636C326.799 179.189 327.045 178.804 327.372 178.496C327.381 178.486 327.394 178.476 327.403 178.465C327.698 178.193 328.056 177.973 328.477 177.814C328.808 177.685 329.135 177.593 329.448 177.541C330.375 177.382 331.216 177.547 331.954 178.039C332.236 178.224 332.5 178.471 332.751 178.758C333.91 180.093 334.715 182.326 334.961 183.743C334.97 183.804 334.984 183.861 334.988 183.922C335.011 184.081 335.029 184.23 335.033 184.359L334.518 184.348ZM326.383 180.775C326.378 180.791 326.374 180.806 326.365 180.822C326.36 180.827 326.36 180.832 326.356 180.837C326.351 180.842 326.352 180.847 326.347 180.852L326.343 180.858C326.338 180.863 326.334 180.868 326.334 180.873L326.329 180.878L326.316 180.894C326.281 180.934 326.242 180.968 326.199 180.996C326.164 181.017 326.128 181.037 326.083 181.058C326.074 181.063 326.065 181.068 326.052 181.073H326.047C326.038 181.078 326.025 181.078 326.016 181.083C326.007 181.089 325.998 181.089 325.989 181.094L325.944 181.109C325.94 181.212 325.94 181.314 325.944 181.412L325.953 181.422C325.967 181.438 325.98 181.458 325.993 181.474L326.029 181.53C326.047 181.556 326.065 181.587 326.079 181.612C326.092 181.633 326.101 181.653 326.114 181.674C326.119 181.679 326.119 181.684 326.123 181.684C326.137 181.705 326.15 181.73 326.159 181.756C326.199 181.828 326.235 181.905 326.266 181.982C326.275 182.007 326.289 182.033 326.298 182.059C326.347 182.172 326.387 182.29 326.428 182.403C326.437 182.434 326.445 182.459 326.454 182.485C326.463 182.516 326.472 182.546 326.481 182.572C326.383 182.018 326.329 181.391 326.383 180.775ZM326.629 183.327C326.566 183.358 326.504 183.383 326.437 183.414C326.401 183.429 326.369 183.445 326.334 183.46C326.298 183.476 326.266 183.491 326.231 183.506C326.28 183.701 326.329 183.876 326.378 184.03L326.821 184.015C326.763 183.83 326.696 183.594 326.629 183.327Z" fill="#23344A"/>
<path d="M344.941 205.22L324.369 208.29L320.883 186.684L342.385 182.464L344.941 205.22Z" fill="black"/>
<path d="M334.518 184.348V184.317C334.518 184.302 334.514 184.194 334.501 184.009C334.496 183.932 334.487 183.85 334.478 183.753C334.438 183.332 334.353 182.716 334.192 182.018C333.964 181.048 333.538 179.769 332.76 178.753C332.599 178.542 332.42 178.342 332.227 178.157C331.489 177.459 330.603 177.085 329.582 177.033C329.171 177.013 328.737 177.044 328.285 177.126C327.273 177.31 326.49 177.808 325.953 178.599C325.891 178.691 325.832 178.789 325.774 178.886C325.586 179.22 325.448 179.579 325.345 179.949C325.246 180.293 325.184 180.647 325.143 181.001C325.139 181.058 325.13 181.119 325.125 181.176L325.112 181.361C325.099 181.597 325.09 181.833 325.09 182.059C325.097 182.669 325.151 183.277 325.251 183.876C325.264 183.943 325.273 184.004 325.282 184.061C325.313 184.24 325.34 184.353 325.349 184.374L325.394 184.559L326.562 184.564L331.619 184.574L334.527 184.579L334.518 184.348ZM326.387 184.056H325.738V184.051C325.721 183.968 325.703 183.855 325.68 183.727C325.636 183.45 325.586 183.07 325.559 182.644C325.542 182.377 325.533 182.09 325.542 181.792C325.546 181.587 325.559 181.376 325.577 181.166C325.582 181.135 325.582 181.109 325.586 181.078C325.613 180.817 325.658 180.555 325.716 180.298C325.721 180.283 325.721 180.272 325.725 180.257L325.765 180.103C325.855 179.774 325.98 179.456 326.141 179.169C326.146 179.158 326.155 179.148 326.159 179.133C326.302 178.881 326.472 178.661 326.665 178.471C326.808 178.327 326.965 178.204 327.135 178.096C327.484 177.87 327.886 177.716 328.347 177.634C328.732 177.562 329.099 177.531 329.448 177.541C330.415 177.572 331.252 177.911 331.936 178.558C333.471 180 333.905 182.623 334.031 183.773C334.044 183.891 334.053 183.994 334.057 184.081L326.835 184.066L326.387 184.056Z" fill="#23344A"/>
<path d="M341.768 208.68L317.76 206.56L319.688 184.251L341.996 183.501L341.768 208.68Z" fill="url(#paint36_linear_939_4533)"/>
<path d="M274.71 196.335C274.71 196.335 274.907 194.461 274.929 194.173C274.952 193.886 274.612 193.183 274.164 192.413C273.717 191.643 272.808 190.832 272.669 190.832C272.531 190.832 272.387 190.76 272.097 190.996C271.806 191.232 271.671 191.617 271.671 191.617C271.671 191.617 271.193 191.715 271.058 192.202C271.058 192.202 270.611 192.315 270.535 192.9C270.535 192.9 270.101 193.024 270.078 193.455C270.078 193.455 270.418 194.163 270.477 194.466C270.535 194.769 271.327 196.186 272.267 197.407C272.262 197.402 273.493 198.213 274.71 196.335Z" fill="white"/>
<path d="M277.359 198.922C277.561 197.171 277.355 194.954 276.352 193.609C275.44 192.387 274.043 192.151 272.67 192.402C271.604 192.598 270.781 193.131 270.168 193.896C268.879 195.498 268.535 198.183 268.727 200.323L277.359 198.922ZM269.112 199.774C269.112 199.733 269.107 199.687 269.107 199.635C269.076 198.624 269.134 195.909 270.481 194.23C271.094 193.47 271.873 193.044 272.755 192.885C273.981 192.664 275.229 192.849 276.035 193.927C276.889 195.062 277.1 197.002 276.983 198.496L269.112 199.774Z" fill="#23344A"/>
<path d="M259.518 224.368L261.093 201.119L264.606 224.044L262.176 223.557L259.518 224.368Z" fill="url(#paint37_linear_939_4533)"/>
<path d="M264.605 224.044L285.49 219.83L282.071 197.515L261.034 200.949L264.605 224.044Z" fill="url(#paint38_linear_939_4533)"/>
<path d="M286.913 207.602C287.361 206.442 287.643 204.995 287.285 203.788C287.012 202.874 286.417 202.274 285.651 201.904L285.517 202.274C286.251 202.628 286.734 203.182 286.958 203.922C287.303 205.061 286.976 206.499 286.546 207.577L286.913 207.602Z" fill="#23344A"/>
<path d="M271.564 224.932L288.677 227.489L291.59 209.496L273.699 205.985L271.564 224.932Z" fill="url(#paint39_linear_939_4533)"/>
<path d="M268.078 224.368L273.685 206.001L271.564 224.819L269.747 224.044L268.078 224.368Z" fill="url(#paint40_linear_939_4533)"/>
<path d="M287.889 207.356C288.005 206.801 288.408 204.507 287.513 202.91L287.2 203.136C287.249 203.224 287.294 203.311 287.334 203.403C287.943 204.784 287.643 206.658 287.535 207.207L287.889 207.356Z" fill="#23344A"/>
<path d="M269.747 227.119L273.556 207.274L274.204 227.699L272.128 226.786L269.747 227.119Z" fill="url(#paint41_linear_939_4533)"/>
<path d="M272.262 197.402C272.262 197.402 273.542 198.706 274.204 198.732C274.862 198.758 275.202 196.679 275.202 196.679L274.634 195.405L272.262 197.402Z" fill="#EEA886"/>
<path d="M322.132 182.813C322.132 182.813 322.772 182.12 323.054 181.52C323.336 180.919 324.611 184.086 324.611 184.086C324.611 184.086 323.022 184.163 322.32 184.728C321.622 185.293 322.132 182.813 322.132 182.813Z" fill="white"/>
<path d="M327.229 178.553C327.229 178.553 325.336 179.451 325.425 179.821C325.515 180.19 325.743 180.262 325.743 180.262L325.112 181.037C325.112 181.037 324.946 181.823 325.739 181.802C325.739 181.802 325.519 182.516 326.28 182.392C326.28 182.392 326.316 182.937 326.683 182.952C327.045 182.967 328.245 182.326 328.245 182.326C328.245 182.326 328.446 182.059 328.146 181.571C328.146 181.571 328.392 181.083 328.07 180.657C328.07 180.657 328.213 180.231 327.86 179.774C327.86 179.774 328.119 178.794 327.435 178.476C327.43 178.471 327.309 178.512 327.229 178.553Z" fill="url(#paint42_linear_939_4533)"/>
<path d="M323.962 179.682C323.962 179.682 325.363 179.81 326.101 180.267C326.267 180.37 326.414 180.503 326.392 180.724C326.37 180.94 326.07 181.181 325.461 181.16C324.853 181.14 324.056 181.433 324.056 181.433C324.056 181.433 323.434 181.202 323.962 179.682Z" fill="white"/>
<path d="M272.79 191.032C272.79 191.032 273.887 193.018 273.632 193.26C273.377 193.501 273.153 193.414 273.153 193.414L273.283 194.466C273.283 194.466 273.023 195.216 272.388 194.677C272.388 194.677 272.209 195.405 271.649 194.8C271.649 194.8 271.345 195.221 271.041 194.995C270.736 194.769 270.079 193.455 270.079 193.455C270.079 193.455 270.047 193.106 270.535 192.9C270.535 192.9 270.575 192.336 271.059 192.202C271.059 192.202 271.153 191.756 271.672 191.617C271.672 191.617 271.949 190.647 272.67 190.832C272.67 190.837 272.746 190.945 272.79 191.032Z" fill="url(#paint43_linear_939_4533)"/>
<path d="M274.902 194.112C274.902 194.112 273.69 193.296 272.857 193.183C272.669 193.157 272.482 193.172 272.392 193.362C272.298 193.552 272.423 193.948 272.933 194.333C273.444 194.718 273.945 195.482 273.945 195.482C273.945 195.482 274.571 195.698 274.902 194.112Z" fill="white"/>
<path d="M297.38 280.891C296.4 281.23 296.105 283.139 295.273 283.699C294.44 284.258 290.373 284.654 290.225 283.191C290.077 281.728 291.93 280.419 292.762 279.69C293.595 278.961 295.465 276.558 295.845 275.604C295.845 275.604 296.181 276.214 297.179 276.024C298.177 275.835 298.343 275.532 298.343 275.532C298.307 276.661 298.651 277.467 298.75 277.903C299.094 279.428 298.36 280.552 297.38 280.891Z" fill="url(#paint44_linear_939_4533)"/>
<path d="M304.021 281.153C303.265 281.943 303.122 283.201 302.29 283.766C302.048 283.93 301.574 284.089 301.014 284.207C299.998 284.417 298.71 284.459 298.074 284.038C297.859 283.894 297.721 283.699 297.694 283.432C297.546 281.969 299.435 280.336 300.267 279.602C300.781 279.156 301.31 278.109 301.735 277.149C301.999 276.548 302.218 275.983 302.366 275.614C302.37 275.619 302.415 275.722 302.536 275.819C302.706 275.958 303.032 276.101 303.605 275.994C304.402 275.845 304.711 275.604 304.8 275.511L304.813 275.496L304.827 275.48L304.831 275.475L304.836 275.47C305.001 276.384 305.256 277.318 305.355 277.754C305.7 279.279 304.737 280.403 304.021 281.153Z" fill="url(#paint45_linear_939_4533)"/>
<path d="M296.835 165.807C296.835 165.807 300.016 165.427 301.162 168.948C302.307 172.475 303.386 173.625 303.525 175.478C304.071 182.967 307.118 181.273 306.263 185.591C305.404 189.908 304.813 190.56 304.813 190.56L297.524 188.922L290.14 188.948C290.14 188.948 293.031 187.295 292.386 183.768C291.742 180.242 290.14 174.467 291.044 170.534C291.948 166.597 294.933 166.11 296.835 165.807Z" fill="black"/>
<path d="M274.204 227.699L292.668 226.955L293.008 207.176H273.569L274.204 227.699Z" fill="url(#paint46_linear_939_4533)"/>
<path d="M349.778 203.639L342.385 182.464L344.941 205.22L347.093 203.773L349.778 203.639Z" fill="#00759F"/>
<path d="M347.12 207.987L341.996 183.501L341.768 208.68L344.261 207.587L347.12 207.987Z" fill="#A600A9"/>
<path d="M291.581 216.062C291.581 216.062 288.9 226.78 288.43 229.517C287.965 232.253 286.654 245.502 286.515 247.755C286.376 250.009 290.892 260.573 291.138 261.333C292.091 264.285 295.989 274.977 295.989 274.977C295.989 274.977 298.508 276.692 298.226 274.182C297.371 266.548 296.969 264.659 296.369 260.696C295.058 252.016 292.346 250.881 292.758 249.614C296.955 236.816 297.801 228.131 298.36 227.381C298.92 226.632 299 227.766 299.327 229.429C299.654 231.092 299.193 242.54 299.783 246.954C300.106 249.362 300.826 254.752 301.059 257.863C301.292 260.974 302.518 275.373 302.518 275.373C302.518 275.373 302.679 275.912 304.549 274.721C304.858 274.526 306.344 261.995 306.389 258.294C306.433 254.593 305.01 254.064 306.151 246.898C308.604 231.539 308.264 228.895 305.404 217.854C298.41 190.837 291.581 216.062 291.581 216.062Z" fill="white"/>
<path d="M324.289 184.677C324.177 184.543 317.375 190.519 316.632 191.011C315.173 191.982 313.584 191.93 311.933 192.048C310.08 192.177 307.982 191.951 306.165 192.372C305.221 192.587 305.113 192.87 304.621 194.019C303.287 197.146 302.853 201.032 302.679 204.471C302.495 208.054 303.695 210.544 304.952 213.711C305.382 214.784 305.981 215.893 305.153 216.873C304.406 217.756 302.943 217.936 301.963 218.079C299.555 218.439 295.863 218.665 293.541 217.566C290.704 216.221 291.209 212.125 290.91 209.265C290.708 207.351 289.898 204.481 289.437 202.623C288.981 200.79 288.932 200.02 289.017 198.075C288.131 200.96 287.383 205.888 285.003 207.715C283.159 209.132 281.512 207.233 280.187 205.908L272.643 198.378L274.249 196.673C274.424 196.489 274.433 196.437 274.634 196.252C275.104 195.821 275.05 195.662 275.533 196.042C275.86 196.299 276.728 197.223 277.006 197.515C277.914 198.485 278.715 199.076 279.628 200.051C280.42 200.898 281.776 202.859 282.993 202.171C283.929 201.642 284.184 199.461 284.506 198.491C285.396 195.785 286.296 193.065 287.361 190.442C288.498 187.634 291.021 186.145 293.465 185.026C295.581 184.056 298.414 184.251 300.558 184.877C302.066 185.318 302.603 185.344 304.102 185.822C305.534 186.278 306.876 186.864 308.326 187.208C310.022 187.608 311.75 187.747 313.477 187.772C314.833 187.793 315.397 187.531 316.538 186.617C318.073 185.395 320.324 183.281 322.011 182.3C323.089 181.674 323.456 183.701 324.289 184.677Z" fill="url(#paint47_linear_939_4533)"/>
<path d="M299.032 180.447C299.032 180.447 298.777 184.092 299.385 185.18C299.998 186.273 298.862 187.752 296.526 187.243C294.185 186.735 294.324 185.216 294.324 185.216C294.324 185.216 294.977 182.967 294.785 181.166C294.597 179.374 299.032 180.447 299.032 180.447Z" fill="white"/>
<path d="M300.553 184.877C300.553 184.877 298.446 190.529 295.711 191.709C295.711 191.709 293.017 188.963 293.742 184.903C293.742 184.898 297.219 182.854 300.553 184.877ZM297.251 167.87C297.251 167.87 301.466 168.568 300.849 175.704C300.231 182.839 296.512 182.274 296.266 182.269C296.02 182.264 292.534 182.418 292.234 173.712C292.234 173.707 292.091 167.265 297.251 167.87Z" fill="white"/>
<path d="M296.772 170.452C296.772 170.452 298.741 172.829 299.654 174.03C300.567 175.231 300.674 177.557 300.674 177.557C300.674 177.557 302.213 175.401 301.569 172.886C300.925 170.37 299.399 165.483 295.541 166.982C291.684 168.486 291.541 175.098 291.993 178.373C291.993 178.373 293.724 171.135 296.772 170.452Z" fill="black"/>
<path d="M295.152 181.961C295.152 181.961 296.955 182.998 298.781 181.361C298.781 181.361 298.079 182.7 296.857 182.772C295.631 182.849 295.152 181.961 295.152 181.961Z" fill="#223247"/>
<path d="M283.575 201.509C283.396 201.95 282.989 202.171 282.989 202.171C281.065 203.362 280.729 206.18 280.662 207.176L280.255 207.171C280.586 201.986 283.575 201.509 283.575 201.509Z" fill="#23344A"/>
<path d="M283.463 201.54C283.463 201.54 280.353 201.709 279.476 207.12L279.794 207.176C279.794 207.176 280.402 203.188 282.886 202.12C282.886 202.12 283.231 201.95 283.463 201.54Z" fill="#23344A"/>
<path d="M305.476 215.143C305.476 215.143 309.732 225.251 306.872 245.763C306.872 245.763 298.195 244.829 285.177 243.761C285.177 243.761 291.098 216.175 291.263 214.419C291.429 212.669 305.476 215.143 305.476 215.143Z" fill="url(#paint48_linear_939_4533)"/>
<path d="M295.917 274.772C295.917 274.772 297.13 275.701 298.258 274.464L298.347 275.542C298.347 275.542 296.427 277.523 295.917 275.393V274.772ZM302.871 274.592C302.871 274.592 303.596 275.342 304.693 274.218L304.831 275.475C304.831 275.475 302.961 277.667 302.455 275.537L302.871 274.592Z" fill="white"/>
<path d="M291.138 212.961C291.138 212.961 296.248 215.133 303.632 210.349C303.632 210.349 303.927 211.037 304.259 211.986C304.259 211.986 297.528 216.75 291.268 214.419C291.263 214.419 291.053 213.331 291.138 212.961Z" fill="url(#paint49_linear_939_4533)"/>
<path d="M227.696 299.006C227.696 301.06 219.891 302.723 210.27 302.723C200.644 302.723 192.844 301.06 192.844 299.006C192.844 296.953 200.649 295.29 210.27 295.29C219.891 295.285 227.696 296.953 227.696 299.006Z" fill="url(#paint50_linear_939_4533)"/>
<path d="M218.75 296.784C218.844 296.753 219.077 299.658 218.817 300.007C218.553 300.356 217.206 300.279 216.844 300.048C216.481 299.817 217.305 297.02 217.305 297.02C217.305 297.02 218.061 297.015 218.75 296.784ZM205.728 297.872C205.728 297.872 205.674 300.264 205.334 300.433C204.994 300.603 203.508 300.315 202.703 299.812C201.897 299.309 201.034 298.431 201.517 298.144C202 297.857 203.437 298.129 204.108 297.949" fill="#32658F"/>
<path d="M200.389 237.417C200.389 237.417 199.879 236.544 199.982 236.154C200.085 235.769 199.781 234.193 199.494 233.957C199.024 233.572 199.306 234.45 199.248 234.655C199.194 234.86 196.885 230.025 197.1 231.847C197.122 232.037 198.04 233.618 197.986 233.813C197.986 233.813 197.239 234.593 197.418 235.543C197.565 236.328 198.089 236.796 198.434 237.319C198.724 237.761 198.921 238.3 198.921 238.3L200.389 237.417ZM209.89 258.961C209.89 258.961 208.789 266.117 208.493 267.909C208.198 269.7 207.361 278.37 207.276 279.844C207.187 281.317 205.925 286.871 205.983 287.4C206.041 287.929 204.112 298.503 204.112 298.503C204.112 298.503 204.77 299.13 205.468 298.56C205.826 298.267 208.753 289.489 209.312 286.943C209.858 284.459 211.42 278.463 211.715 277.652C214.45 270.09 214.472 266.949 214.826 266.456C215.184 265.963 215.215 266.759 215.421 267.847C215.627 268.935 216.074 278.345 216.343 279.536C216.611 280.727 216.401 284.767 216.553 286.799C216.701 288.837 217.354 298.046 217.354 298.046C217.354 298.046 217.86 298.981 218.567 298.072C218.719 297.877 219.793 287.816 219.82 285.393C219.851 282.97 219.882 279.628 219.94 278.581C220.491 268.545 221.847 267.113 219.712 260.008C215.721 246.703 209.89 258.961 209.89 258.961Z" fill="black"/>
<path d="M218.777 257.016C218.777 257.016 221.762 262.816 221.024 272.678C221.024 272.678 212.669 273.761 207.25 273.273C207.25 273.273 209.04 262.072 209.939 258.592C210.494 256.446 218.777 257.016 218.777 257.016Z" fill="url(#paint51_linear_939_4533)"/>
<path d="M217.936 235.379C217.913 235.374 217.904 235.368 217.909 235.363C217.918 235.363 217.927 235.368 217.936 235.379Z" fill="#6EA2E8"/>
<path d="M217.936 235.379C218.039 235.553 217.945 237.237 217.878 237.283C217.752 237.37 219.207 238.32 220.424 238.957C219.95 238.91 219.475 238.869 219.086 238.844C218.791 238.823 218.544 238.813 218.383 238.813C216.526 238.808 215.322 238.474 215.322 238.474C215.322 238.474 212.606 238.541 212.436 238.623C210.619 239.496 210.234 239.496 209.693 239.732C209.478 239.824 208.856 240.142 208.109 240.527C207.384 240.856 206.659 241.185 206.234 241.369C205.151 241.836 203.423 242.591 203.423 242.591L200.515 237.175L198.64 238.341C198.64 238.341 201.204 246.549 202.931 246.785C204.104 246.944 206.981 245.758 208.708 244.983C208.829 244.947 208.901 244.922 208.901 244.922C208.843 246.113 208.677 247.832 209.662 249.341C210.481 250.604 210.042 258.376 209.894 258.961L219.247 258.104C218.983 257.36 217.636 254.69 217.466 253.145C217.269 251.369 217.699 249.634 218.061 248.176C218.616 245.964 219.61 243.376 219.61 243.376C219.61 243.376 226.94 241.713 226.81 239.701C226.676 237.699 218.486 235.569 217.936 235.379Z" fill="url(#paint52_linear_939_4533)"/>
<path d="M217.909 228.264C217.945 228.336 218.795 229.301 218.603 231.698C218.41 234.101 218.629 241.657 218.629 241.657C218.629 241.657 218.061 242.529 214.808 242.586C211.554 242.642 210.024 242.18 210.024 242.18C210.024 242.18 210.861 238.171 210.959 235.374C211.058 232.576 211.362 228.603 212.494 227.443C213.622 226.288 216.768 225.82 217.909 228.264Z" fill="black"/>
<path d="M133.354 291.876C133.354 294.453 118.072 296.542 99.2186 296.542C80.3654 296.542 65.0833 294.453 65.0833 291.876C65.0833 289.299 80.3654 287.21 99.2186 287.21C118.072 287.21 133.354 289.299 133.354 291.876Z" fill="url(#paint53_linear_939_4533)"/>
<path d="M117.4 288.411C117.4 288.411 120.269 292.841 119.875 293.545C119.481 294.248 116.465 294.345 114.626 293.545C112.787 292.744 112.746 287.549 111.914 285.316C111.565 284.382 112.312 281.625 113.359 281.425C114.407 281.225 115.543 281.81 115.543 281.81C115.543 281.81 114.46 284.956 117.4 288.411Z" fill="#16202E"/>
<path d="M111.919 285.321V289.956H112.442V286.373L111.919 285.321ZM92.421 288.488C92.421 288.488 95.1866 292.846 94.7928 293.55C94.399 294.253 91.3828 294.35 89.5436 293.55C87.7089 292.749 87.6641 287.554 86.8318 285.321C86.4827 284.387 87.23 281.63 88.2727 281.43C89.3199 281.23 90.546 281.861 90.546 281.861C90.546 281.861 89.481 285.028 92.421 288.488Z" fill="#16202E"/>
<path d="M86.8362 285.321V289.956H87.3598V286.373L86.8362 285.321Z" fill="#16202E"/>
<path d="M116.201 285.367C115.982 283.581 115.57 281.81 115.566 281.779C114.841 277.903 112.08 263.022 112.178 262.18C112.29 261.21 109.891 250.938 109.721 248.217C109.551 245.491 107.967 229.47 107.403 226.159C106.839 222.848 104.745 209.625 104.745 209.625C104.745 209.625 94.5287 178.886 86.062 211.555C82.6028 224.907 84.5807 227.335 85.6279 245.882C85.7353 247.817 85.7979 253.992 85.8561 258.468C85.9098 262.77 87.8564 280.075 88.2055 281.774C88.1205 282.251 87.9996 283.191 88.0578 284.428C88.1473 286.24 88.8902 289.238 89.8523 290.269C90.8144 291.306 93.1772 290.942 93.2622 290.542C93.3473 290.141 91.4678 286.83 91.1187 285.372C90.7697 283.92 90.5504 281.861 90.5504 281.861C90.5504 281.861 91.79 264.839 92.0764 261.076C92.3583 257.313 91.9645 249.855 92.4746 247.647C92.9848 245.44 93.8306 228.053 94.2288 226.046C94.6226 224.034 95.6429 222.607 96.3231 223.516C97.0033 224.424 99.5317 243.808 99.93 245.384C100.328 246.954 104.817 256.749 105.855 261.343C106.786 265.46 111.167 278.391 112.702 281.928C112.706 281.948 112.952 282.775 113.149 284.433C113.359 286.235 113.981 289.243 114.944 290.275C115.906 291.312 118.269 290.947 118.354 290.547C118.434 290.136 116.385 286.861 116.201 285.367ZM71.8896 211.658C71.8896 211.658 71.1513 212.777 70.7664 212.915C70.3816 213.054 69.9386 213.829 69.6208 214.029C69.2986 214.229 68.247 214.424 67.9919 214.758C67.889 214.897 67.5489 216.031 67.3117 216.288C67.0745 216.545 66.5331 216.991 66.7344 217.222C66.9358 217.453 67.522 217.202 67.522 217.202C67.522 217.202 67.3162 217.448 67.4415 217.71C67.6831 218.223 68.0054 218.213 68.0054 218.213C68.0054 218.213 67.9427 218.618 68.0904 218.803C68.417 219.209 68.7258 219.193 68.7258 219.193C68.7258 219.193 68.784 219.496 69.0525 219.712C69.3971 219.989 69.773 219.779 69.773 219.779C69.773 219.779 70.1355 220.235 70.4174 220.112C70.6993 219.989 70.847 219.732 71.0394 219.568C71.2318 219.404 72.5027 217.397 72.8607 215.595C73.2232 213.793 74.1227 212.571 74.1227 212.571L71.8896 211.658Z" fill="#84350D"/>
<path d="M72.3103 224.814L63.4185 223.141L63.4632 222.884C63.4722 222.843 63.6422 221.873 64.1076 220.703C64.5417 219.609 65.3203 218.136 66.5644 217.309C67.7145 216.55 69.0525 216.457 70.5471 217.032C71.6167 217.443 72.3506 218.177 72.7399 219.214C73.608 221.529 72.4266 224.511 72.3774 224.635L72.3103 224.814ZM63.9465 222.73L72.0463 224.255C72.279 223.598 73.0218 221.226 72.3416 219.419C72.006 218.521 71.3526 217.879 70.4129 217.515C69.0435 216.986 67.8219 217.063 66.7881 217.751C64.9176 218.988 64.1434 221.863 63.9465 222.73Z" fill="#23344A"/>
<path d="M48.8882 251.626L77.3581 255.876L82.1867 225.964L52.419 220.117L48.8882 251.626Z" fill="url(#paint54_linear_939_4533)"/>
<path d="M42.1846 249.434L52.4189 220.117L48.8881 251.626L45.9033 249.624L42.1846 249.434Z" fill="url(#paint55_linear_939_4533)"/>
<path d="M73.6394 224.527L64.1211 224.547L64.13 224.27C64.13 224.224 64.1658 223.182 64.4746 221.868C64.761 220.646 65.3517 218.952 66.5242 217.843C67.6071 216.822 68.9899 216.462 70.6322 216.765C71.8091 216.981 72.6862 217.602 73.2501 218.603C74.5031 220.841 73.72 224.183 73.6886 224.327L73.6394 224.527ZM64.6089 224.014L73.2814 223.993C73.4246 223.264 73.8408 220.641 72.8608 218.89C72.373 218.023 71.5988 217.484 70.5606 217.289C69.0525 217.012 67.7951 217.335 66.8195 218.254C65.0564 219.917 64.6805 223.069 64.6089 224.014Z" fill="#23344A"/>
<path d="M54.0345 257.118L84.3571 255.902L81.0993 223.741L52.9695 223.577L54.0345 257.118Z" fill="url(#paint56_linear_939_4533)"/>
<path d="M46.7178 256.164L52.9693 223.577L54.0344 257.118L50.6244 255.619L46.7178 256.164Z" fill="url(#paint57_linear_939_4533)"/>
<path d="M67.5803 216.971C67.5803 216.971 68.6901 215.277 69.3256 215.246C69.961 215.215 69.5896 215.852 69.5896 215.852C69.5896 215.852 69.9476 215.215 70.4264 215.487C70.9097 215.759 70.4399 216.483 70.4399 216.483C70.4399 216.483 70.8247 216.083 71.2096 216.55C71.5944 217.017 71.0843 217.51 71.0843 217.51C71.0843 217.51 71.9077 217.289 71.8047 218.074C71.6302 219.394 70.422 220.117 70.422 220.117C70.422 220.117 70.1177 220.261 69.7776 219.784C69.7776 219.784 69.0481 220.189 68.7304 219.199C68.7304 219.199 67.7996 219.06 68.0099 218.218C68.0055 218.213 67.021 217.997 67.5803 216.971Z" fill="#84350D"/>
<path d="M102.36 162.136C102.226 161.982 102.539 158.625 102.602 157.953V157.942L102.606 157.937C102.62 157.922 102.901 157.563 103.148 157.619C103.264 157.645 103.349 157.758 103.403 157.953C103.577 158.564 103.13 160.16 102.937 160.843C102.901 160.961 102.879 161.048 102.87 161.094C102.821 161.264 102.579 162.116 102.423 162.157H102.405C102.387 162.162 102.373 162.152 102.36 162.136ZM102.655 157.973C102.512 159.498 102.311 161.962 102.4 162.095C102.405 162.1 102.405 162.1 102.409 162.1C102.499 162.075 102.7 161.49 102.816 161.079C102.83 161.033 102.852 160.945 102.888 160.827C103.063 160.211 103.524 158.569 103.353 157.978C103.304 157.809 103.233 157.711 103.139 157.691C103.125 157.686 103.107 157.686 103.094 157.686C102.901 157.681 102.691 157.927 102.655 157.973Z" fill="#EEA886"/>
<path d="M97.3032 148.774C97.3032 148.774 93.5263 148.323 92.1659 152.506C90.8055 156.69 89.5211 158.06 89.36 160.258C88.7112 169.148 85.0909 167.136 86.1112 172.264C87.127 177.387 87.8341 178.168 87.8341 178.168L96.4887 176.222L105.255 176.253C105.255 176.253 101.827 174.287 102.588 170.103C103.353 165.92 105.255 159.061 104.181 154.39C103.103 149.719 99.5586 149.134 97.3032 148.774Z" fill="black"/>
<path d="M92.6761 162.157C92.5195 162.116 92.2778 161.264 92.2286 161.089C92.2197 161.043 92.1928 160.956 92.1615 160.838C91.9691 160.155 91.5216 158.558 91.6961 157.948C91.7498 157.752 91.8393 157.645 91.9512 157.614C92.1973 157.557 92.4792 157.912 92.4926 157.932L92.4971 157.937V157.948C92.5598 158.62 92.873 161.977 92.7388 162.131C92.7253 162.147 92.7119 162.152 92.694 162.152C92.6851 162.162 92.6806 162.162 92.6761 162.157ZM91.9601 157.686C91.8661 157.706 91.7945 157.804 91.7453 157.973C91.5753 158.564 92.0362 160.206 92.2107 160.822C92.2465 160.94 92.2689 161.028 92.2778 161.074C92.3942 161.484 92.5956 162.07 92.6851 162.095C92.6895 162.095 92.6895 162.095 92.694 162.09C92.779 161.957 92.5821 159.498 92.4389 157.968C92.3987 157.922 92.157 157.64 91.9601 157.686Z" fill="#EEA886"/>
<path d="M106.262 213.742C105.64 211.211 105.618 208.069 104.405 206.966C103.993 202.787 103.546 195.097 104.718 193.347C106.584 190.56 106.754 186.602 106.643 184.394C106.643 184.394 111.807 195.103 112.129 195.909C113.221 198.645 111.113 199.774 109.636 201.319L106.267 204.522L108.097 208.439L115.123 202.808C118.394 199.384 118.403 196.756 115.745 190.724C114.935 188.891 110.37 179.153 109.502 178.116C108.634 177.079 103.622 173.101 100.037 171.802C96.4574 170.504 94.4213 171.761 94.4213 171.761C94.4213 171.761 90.7428 172.521 87.3418 174.066C85.1401 175.067 76.5616 195.621 76.2528 196.514C75.0982 199.825 70.2429 212.027 70.6367 212.13C70.8425 212.181 73.9034 214.214 73.6662 214.009C73.5723 213.927 80.4145 199.42 81.0634 197.515C82.1956 194.199 86.9704 184.59 86.9704 184.59C86.9704 184.59 88.2324 187.233 88.7201 191.597C89.0334 194.379 88.9886 196.525 88.8633 199.8C88.7559 202.679 88.1921 204.712 87.6954 206.088C87.6954 206.088 83.5828 213.459 83.7887 226.868C83.9677 238.228 85.0417 242.396 85.0417 242.396C85.0417 242.396 91.7229 248.361 102.579 247.386C113.436 246.41 113.682 244.126 116.286 245.358C116.286 245.358 113.172 238.936 109.771 232.448C106.732 226.667 106.889 216.272 106.262 213.742Z" fill="url(#paint58_linear_939_4533)"/>
<path d="M96.8065 151.223C96.8065 151.223 91.8035 152.049 92.5374 160.524C93.2713 168.994 97.6836 168.322 97.979 168.317C98.2743 168.312 102.409 168.491 102.767 158.158C102.763 158.153 102.933 150.509 96.8065 151.223Z" fill="#84350D"/>
<path d="M94.5823 166.813C94.5823 166.813 94.8911 171.217 94.1527 172.542C93.4143 173.861 94.7837 175.652 97.6119 175.042C100.44 174.426 100.275 172.588 100.275 172.588C100.275 172.588 99.4824 169.867 99.7151 167.691C99.9478 165.514 94.5823 166.813 94.5823 166.813Z" fill="#84350D"/>
<path d="M97.3793 154.293C97.3793 154.293 95.0434 157.111 93.9559 158.538C92.8685 159.965 92.7477 162.722 92.7477 162.722C92.7477 162.722 90.9174 160.16 91.6826 157.178C92.4479 154.195 94.2558 148.389 98.8382 150.171C103.421 151.957 103.591 159.806 103.054 163.697C103.049 163.697 100.991 155.104 97.3793 154.293Z" fill="black"/>
<path d="M92.8281 172.151C92.8281 172.151 96.2962 182.228 98.404 183.984C98.404 183.984 101.174 173.702 100.982 172.198C100.982 172.198 96.8019 170.319 92.8281 172.151Z" fill="#84350D"/>
<path d="M100.158 169.713C100.158 169.713 106.343 176.027 104.736 179.964C103.367 183.327 98.5115 181.263 99.3125 177.742C100.114 174.22 100.158 169.713 100.158 169.713Z" fill="black"/>
<path d="M106.262 204.522L106.593 205.231L106.611 204.194L106.262 204.522Z" fill="#FAB46C"/>
<path d="M99.6794 188.316L104.597 215.497L119.848 211.411L113.042 186.053L99.6794 188.316Z" fill="#00759F"/>
<path d="M107.694 191.884C107.972 191.884 108.254 191.833 108.535 191.725C109.336 191.427 109.878 190.904 110.151 190.164C110.724 188.599 109.882 186.643 109.847 186.561L109.686 186.653C109.694 186.674 110.527 188.609 109.985 190.087C109.735 190.77 109.229 191.253 108.482 191.53C105.627 192.582 104.06 187.608 104.047 187.557L103.877 187.623C103.881 187.634 104.284 188.937 105.049 190.082C105.846 191.273 106.745 191.884 107.694 191.884Z" fill="#23344A"/>
<path d="M104.597 215.497L103.783 215.02L103.282 215.8L99.6794 188.316L104.597 215.497Z" fill="black"/>
<path d="M102.911 205.087C102.911 205.087 101.899 205.395 101.577 205.451C101.255 205.503 101.653 206.185 102.047 206.206C102.441 206.221 102.911 205.087 102.911 205.087Z" fill="#784331"/>
<path d="M103.743 210.78C103.743 210.78 104.213 210.754 104.414 210.626C104.414 210.626 104.763 210.364 105.023 210.195C105.103 210.143 105.179 210.097 105.229 210.071C105.434 209.974 105.913 209.835 106.352 209.44C106.79 209.05 108.218 207.489 108.218 207.489L107.274 205.857L106.544 204.558C106.544 204.558 103.474 204.656 103.027 204.964C102.982 204.995 102.942 205.025 102.906 205.061C102.552 205.364 102.396 205.765 102.226 205.949C102.163 206.016 101.586 206.74 101.617 207.032C101.666 207.438 101.841 207.695 102.06 207.813C102.06 207.813 102.186 208.598 102.544 208.947C102.544 208.947 102.637 209.676 103.192 209.964C103.192 209.969 103.362 210.698 103.743 210.78Z" fill="#84350D"/>
<path d="M106.262 204.522L106.593 205.226L108.092 208.439L115.118 202.808C118.389 199.384 118.398 196.756 115.74 190.724C115.288 189.702 113.677 186.237 112.183 183.183L107.148 185.447C108.459 188.167 111.865 195.257 112.124 195.909C113.216 198.645 111.109 199.774 109.632 201.319L106.607 204.194L106.262 204.522Z" fill="url(#paint59_linear_939_4533)"/>
<path d="M101.532 59.3259C102.303 59.3259 102.928 58.6089 102.928 57.7243C102.928 56.8398 102.303 56.1227 101.532 56.1227C100.761 56.1227 100.136 56.8398 100.136 57.7243C100.136 58.6089 100.761 59.3259 101.532 59.3259Z" fill="white"/>
<path d="M126.838 54.5776C127.609 54.5776 128.234 53.8605 128.234 52.976C128.234 52.0914 127.609 51.3744 126.838 51.3744C126.067 51.3744 125.442 52.0914 125.442 52.976C125.442 53.8605 126.067 54.5776 126.838 54.5776Z" fill="white"/>
<path d="M204.108 105.86C204.879 105.86 205.504 105.143 205.504 104.258C205.504 103.373 204.879 102.656 204.108 102.656C203.337 102.656 202.712 103.373 202.712 104.258C202.712 105.143 203.337 105.86 204.108 105.86Z" fill="white"/>
<path d="M242.387 77.1438C243.158 77.1438 243.783 76.4267 243.783 75.5422C243.783 74.6576 243.158 73.9406 242.387 73.9406C241.616 73.9406 240.991 74.6576 240.991 75.5422C240.991 76.4267 241.616 77.1438 242.387 77.1438Z" fill="white"/>
<path opacity="0.3" d="M129.322 88.1496C128.02 88.1496 126.798 88.5602 125.751 89.2738C125.5 85.1004 122.475 81.8048 118.774 81.8048C117.973 81.8048 117.208 81.969 116.496 82.2514C115.467 78.427 112.357 75.6499 108.688 75.6499C108.41 75.6499 108.142 75.6704 107.873 75.7012C104.445 75.9476 101.586 78.6118 100.592 82.236C99.8718 81.9485 99.1065 81.7842 98.301 81.7842C94.6002 81.7842 91.5751 85.0798 91.3245 89.2532C90.2445 88.5155 89.0105 88.127 87.7535 88.129C83.8915 88.129 80.759 91.7224 80.759 96.1524C80.759 100.583 83.8915 104.176 87.7535 104.176C88.013 104.176 88.2636 104.16 88.5142 104.13H99.2587C99.5719 104.171 99.8897 104.202 100.216 104.202C100.498 104.202 100.776 104.186 101.053 104.155H116.389C116.546 104.166 116.702 104.181 116.859 104.181C117.02 104.181 117.172 104.166 117.329 104.155H128.557C128.807 104.186 129.062 104.202 129.317 104.202C133.179 104.202 136.312 100.608 136.312 96.1781C136.316 91.7429 133.184 88.1496 129.322 88.1496Z" fill="url(#paint60_linear_939_4533)"/>
<path opacity="0.6" d="M199.177 117.748C201.07 117.748 202.837 118.344 204.354 119.381C204.717 113.329 209.107 108.549 214.472 108.549C215.779 108.549 217.027 108.837 218.177 109.355C219.641 103.745 224.17 99.6534 229.535 99.6534C236.082 99.6534 241.389 105.742 241.389 113.252C241.389 113.442 241.385 113.637 241.376 113.827H241.389C247.936 113.827 253.244 119.915 253.244 127.43C253.244 134.94 247.936 141.028 241.389 141.028C240.982 141.028 240.575 141.002 240.177 140.956H200.277C199.915 141.002 199.544 141.028 199.172 141.028C193.569 141.028 189.027 135.818 189.027 129.391C189.032 122.959 193.574 117.748 199.177 117.748Z" fill="url(#paint61_linear_939_4533)"/>
<defs>
<linearGradient id="paint0_linear_939_4533" x1="200.574" y1="-4.07381" x2="165.173" y2="294.251" gradientUnits="userSpaceOnUse">
<stop stop-color="#7700BB"/>
<stop offset="1"/>
</linearGradient>
<linearGradient id="paint1_linear_939_4533" x1="223.978" y1="40.0136" x2="215.542" y2="76.5811" gradientUnits="userSpaceOnUse">
<stop stop-color="#88CFDA"/>
<stop offset="0.008" stop-color="#89CFD9"/>
<stop offset="0.478" stop-color="#C8D9BB"/>
<stop offset="0.822" stop-color="#F0DFA7"/>
<stop offset="1" stop-color="#FFE1A0"/>
</linearGradient>
<linearGradient id="paint2_linear_939_4533" x1="164.743" y1="249.14" x2="151.798" y2="262.238" gradientUnits="userSpaceOnUse">
<stop stop-color="#270036"/>
<stop offset="0.594" stop-color="#4F008B"/>
<stop offset="1" stop-color="#4C24B1"/>
</linearGradient>
<linearGradient id="paint3_linear_939_4533" x1="194.047" y1="250.049" x2="204.95" y2="259.752" gradientUnits="userSpaceOnUse">
<stop stop-color="#270036"/>
<stop offset="0.594" stop-color="#4F008B"/>
<stop offset="1" stop-color="#4C24B1"/>
</linearGradient>
<linearGradient id="paint4_linear_939_4533" x1="175.56" y1="35.0868" x2="175.56" y2="140.052" gradientUnits="userSpaceOnUse">
<stop stop-color="#7633FF"/>
<stop offset="0.159" stop-color="#7137FF"/>
<stop offset="0.353" stop-color="#6243FF"/>
<stop offset="0.568" stop-color="#4957FF"/>
<stop offset="0.794" stop-color="#2672FF"/>
<stop offset="1" stop-color="#0090FF"/>
</linearGradient>
<linearGradient id="paint5_linear_939_4533" x1="159.253" y1="89.9607" x2="159.253" y2="127" gradientUnits="userSpaceOnUse">
<stop stop-color="#009AFF"/>
<stop offset="1" stop-color="white"/>
</linearGradient>
<linearGradient id="paint6_linear_939_4533" x1="197.458" y1="52.3677" x2="197.458" y2="67.8057" gradientUnits="userSpaceOnUse">
<stop stop-color="#009AFF"/>
<stop offset="1" stop-color="white"/>
</linearGradient>
<linearGradient id="paint7_linear_939_4533" x1="153.856" y1="52.3503" x2="153.856" y2="68.0085" gradientUnits="userSpaceOnUse">
<stop stop-color="#009AFF"/>
<stop offset="1" stop-color="white"/>
</linearGradient>
<linearGradient id="paint8_linear_939_4533" x1="194.424" y1="82.7082" x2="218.267" y2="72.4524" gradientUnits="userSpaceOnUse">
<stop stop-color="#009AFF"/>
<stop offset="1" stop-color="white"/>
</linearGradient>
<linearGradient id="paint9_linear_939_4533" x1="156.131" y1="81.5461" x2="134.722" y2="73.8012" gradientUnits="userSpaceOnUse">
<stop stop-color="#009AFF"/>
<stop offset="1" stop-color="white"/>
</linearGradient>
<linearGradient id="paint10_linear_939_4533" x1="157.772" y1="126.985" x2="194.092" y2="126.985" gradientUnits="userSpaceOnUse">
<stop stop-color="#270036"/>
<stop offset="0.594" stop-color="#4F008B"/>
<stop offset="1" stop-color="#4C24B1"/>
</linearGradient>
<radialGradient id="paint11_radial_939_4533" cx="0" cy="0" r="1" gradientUnits="userSpaceOnUse" gradientTransform="translate(176.479 128.399) scale(3.52988 4.04917)">
<stop stop-color="#A6FFFF"/>
<stop offset="0.199" stop-color="#A4FDFF"/>
<stop offset="0.313" stop-color="#9FF4FF"/>
<stop offset="0.405" stop-color="#95E6FF"/>
<stop offset="0.485" stop-color="#87D3FF"/>
<stop offset="0.559" stop-color="#76B9FF"/>
<stop offset="0.625" stop-color="#609AFF"/>
<stop offset="0.652" stop-color="#568BFF"/>
</radialGradient>
<linearGradient id="paint12_linear_939_4533" x1="176.023" y1="42.0846" x2="181.681" y2="42.0846" gradientUnits="userSpaceOnUse">
<stop stop-color="#009AFF"/>
<stop offset="1" stop-color="white"/>
</linearGradient>
<linearGradient id="paint13_linear_939_4533" x1="169.544" y1="42.0846" x2="175.201" y2="42.0846" gradientUnits="userSpaceOnUse">
<stop stop-color="#009AFF"/>
<stop offset="1" stop-color="white"/>
</linearGradient>
<linearGradient id="paint14_linear_939_4533" x1="174.198" y1="41.6134" x2="177.118" y2="41.6134" gradientUnits="userSpaceOnUse">
<stop stop-color="#009AFF"/>
<stop offset="1" stop-color="white"/>
</linearGradient>
<linearGradient id="paint15_linear_939_4533" x1="174.198" y1="40.5667" x2="176.936" y2="40.5667" gradientUnits="userSpaceOnUse">
<stop stop-color="#009AFF"/>
<stop offset="1" stop-color="white"/>
</linearGradient>
<linearGradient id="paint16_linear_939_4533" x1="156.442" y1="41.3084" x2="172.632" y2="41.3084" gradientUnits="userSpaceOnUse">
<stop stop-color="#361A31"/>
<stop offset="0.513" stop-color="#3B1868"/>
<stop offset="1" stop-color="#1D0038"/>
</linearGradient>
<linearGradient id="paint17_linear_939_4533" x1="163.267" y1="63.6585" x2="164.906" y2="41.7418" gradientUnits="userSpaceOnUse">
<stop stop-color="#1DACFF"/>
<stop offset="0.112" stop-color="#20A9FB"/>
<stop offset="0.226" stop-color="#28A0EF"/>
<stop offset="0.342" stop-color="#3690DA"/>
<stop offset="0.458" stop-color="#497BBE"/>
<stop offset="0.574" stop-color="#625F99"/>
<stop offset="0.585" stop-color="#655C95"/>
<stop offset="0.637" stop-color="#6F5F91"/>
<stop offset="0.723" stop-color="#896886"/>
<stop offset="0.834" stop-color="#B37774"/>
<stop offset="0.963" stop-color="#ED8C5C"/>
<stop offset="1" stop-color="#FF9254"/>
</linearGradient>
<linearGradient id="paint18_linear_939_4533" x1="178.666" y1="41.8798" x2="194.856" y2="41.8798" gradientUnits="userSpaceOnUse">
<stop stop-color="#361A31"/>
<stop offset="0.513" stop-color="#3B1868"/>
<stop offset="1" stop-color="#1D0038"/>
</linearGradient>
<linearGradient id="paint19_linear_939_4533" x1="185.428" y1="65.316" x2="187.068" y2="43.3999" gradientUnits="userSpaceOnUse">
<stop stop-color="#1DACFF"/>
<stop offset="0.112" stop-color="#20A9FB"/>
<stop offset="0.226" stop-color="#28A0EF"/>
<stop offset="0.342" stop-color="#3690DA"/>
<stop offset="0.458" stop-color="#497BBE"/>
<stop offset="0.574" stop-color="#625F99"/>
<stop offset="0.585" stop-color="#655C95"/>
<stop offset="0.637" stop-color="#6F5F91"/>
<stop offset="0.723" stop-color="#896886"/>
<stop offset="0.834" stop-color="#B37774"/>
<stop offset="0.963" stop-color="#ED8C5C"/>
<stop offset="1" stop-color="#FF9254"/>
</linearGradient>
<linearGradient id="paint20_linear_939_4533" x1="175.059" y1="67.6671" x2="176.239" y2="124.25" gradientUnits="userSpaceOnUse">
<stop stop-color="#A1BAFF"/>
<stop offset="0.433" stop-color="white"/>
</linearGradient>
<linearGradient id="paint21_linear_939_4533" x1="280.586" y1="288.817" x2="119.504" y2="288.058" gradientUnits="userSpaceOnUse">
<stop stop-color="#AEBDF0"/>
<stop offset="0.207" stop-color="#ACB8F1"/>
<stop offset="0.462" stop-color="#A6A9F4"/>
<stop offset="0.741" stop-color="#9C90F9"/>
<stop offset="1" stop-color="#9072FF"/>
</linearGradient>
<linearGradient id="paint22_linear_939_4533" x1="180.886" y1="278.088" x2="182.24" y2="286.352" gradientUnits="userSpaceOnUse">
<stop stop-color="#270036"/>
<stop offset="0.594" stop-color="#4F008B"/>
<stop offset="1" stop-color="#4C24B1"/>
</linearGradient>
<linearGradient id="paint23_linear_939_4533" x1="146.052" y1="288.174" x2="218.016" y2="288.174" gradientUnits="userSpaceOnUse">
<stop stop-color="#A1BAFF"/>
<stop offset="1" stop-color="white"/>
</linearGradient>
<linearGradient id="paint24_linear_939_4533" x1="181.685" y1="268.306" x2="181.685" y2="156.025" gradientUnits="userSpaceOnUse">
<stop stop-color="#270036"/>
<stop offset="0.594" stop-color="#4F008B"/>
<stop offset="1" stop-color="#4C24B1"/>
</linearGradient>
<linearGradient id="paint25_linear_939_4533" x1="182.082" y1="255.831" x2="182.082" y2="162.082" gradientUnits="userSpaceOnUse">
<stop stop-color="#7633FF"/>
<stop offset="0.216" stop-color="#4E53FF"/>
<stop offset="0.436" stop-color="#2C6DFF"/>
<stop offset="0.646" stop-color="#1480FF"/>
<stop offset="0.839" stop-color="#058CFF"/>
<stop offset="1" stop-color="#0090FF"/>
</linearGradient>
<linearGradient id="paint26_linear_939_4533" x1="155.159" y1="234.65" x2="206.551" y2="234.65" gradientUnits="userSpaceOnUse">
<stop stop-color="#270036"/>
<stop offset="0.594" stop-color="#4F008B"/>
<stop offset="1" stop-color="#4C24B1"/>
</linearGradient>
<linearGradient id="paint27_linear_939_4533" x1="155.159" y1="232.931" x2="206.551" y2="232.931" gradientUnits="userSpaceOnUse">
<stop stop-color="#E19000"/>
<stop offset="0.207" stop-color="#E39504"/>
<stop offset="0.462" stop-color="#E9A410"/>
<stop offset="0.741" stop-color="#F3BD23"/>
<stop offset="1" stop-color="#FFDB3B"/>
</linearGradient>
<linearGradient id="paint28_linear_939_4533" x1="107.197" y1="266.45" x2="256.173" y2="266.45" gradientUnits="userSpaceOnUse">
<stop stop-color="#A1BAFF"/>
<stop offset="1" stop-color="white"/>
</linearGradient>
<linearGradient id="paint29_linear_939_4533" x1="175.455" y1="276.395" x2="188.549" y2="276.395" gradientUnits="userSpaceOnUse">
<stop stop-color="#270036"/>
<stop offset="0.594" stop-color="#4F008B"/>
<stop offset="1" stop-color="#4C24B1"/>
</linearGradient>
<linearGradient id="paint30_linear_939_4533" x1="170.336" y1="182.018" x2="200.394" y2="182.018" gradientUnits="userSpaceOnUse">
<stop stop-color="#A1BAFF"/>
<stop offset="1" stop-color="white"/>
</linearGradient>
<linearGradient id="paint31_linear_939_4533" x1="172.658" y1="191.269" x2="198.489" y2="191.269" gradientUnits="userSpaceOnUse">
<stop stop-color="#A1BAFF"/>
<stop offset="1" stop-color="white"/>
</linearGradient>
<linearGradient id="paint32_linear_939_4533" x1="168.908" y1="211.547" x2="177.717" y2="211.547" gradientUnits="userSpaceOnUse">
<stop stop-color="#A1BAFF"/>
<stop offset="1" stop-color="white"/>
</linearGradient>
<linearGradient id="paint33_linear_939_4533" x1="184.562" y1="211.547" x2="193.37" y2="211.547" gradientUnits="userSpaceOnUse">
<stop stop-color="#A1BAFF"/>
<stop offset="1" stop-color="white"/>
</linearGradient>
<linearGradient id="paint34_linear_939_4533" x1="155.159" y1="189.46" x2="196.525" y2="189.46" gradientUnits="userSpaceOnUse">
<stop stop-color="#A1BAFF"/>
<stop offset="1" stop-color="white"/>
</linearGradient>
<linearGradient id="paint35_linear_939_4533" x1="330.979" y1="284.61" x2="266.569" y2="284.307" gradientUnits="userSpaceOnUse">
<stop stop-color="#AEBDF0"/>
<stop offset="0.207" stop-color="#ACB8F1"/>
<stop offset="0.462" stop-color="#A6A9F4"/>
<stop offset="0.741" stop-color="#9C90F9"/>
<stop offset="1" stop-color="#9072FF"/>
</linearGradient>
<linearGradient id="paint36_linear_939_4533" x1="317.758" y1="196.091" x2="341.996" y2="196.091" gradientUnits="userSpaceOnUse">
<stop stop-color="#7633FF"/>
<stop offset="0.159" stop-color="#7137FF"/>
<stop offset="0.353" stop-color="#6243FF"/>
<stop offset="0.568" stop-color="#4957FF"/>
<stop offset="0.794" stop-color="#2672FF"/>
<stop offset="1" stop-color="#0090FF"/>
</linearGradient>
<linearGradient id="paint37_linear_939_4533" x1="259.516" y1="212.742" x2="264.607" y2="212.742" gradientUnits="userSpaceOnUse">
<stop stop-color="#270036"/>
<stop offset="0.594" stop-color="#4F008B"/>
<stop offset="1" stop-color="#4C24B1"/>
</linearGradient>
<linearGradient id="paint38_linear_939_4533" x1="261.035" y1="210.78" x2="285.49" y2="210.78" gradientUnits="userSpaceOnUse">
<stop stop-color="#7633FF"/>
<stop offset="0.159" stop-color="#7137FF"/>
<stop offset="0.353" stop-color="#6243FF"/>
<stop offset="0.568" stop-color="#4957FF"/>
<stop offset="0.794" stop-color="#2672FF"/>
<stop offset="1" stop-color="#0090FF"/>
</linearGradient>
<linearGradient id="paint39_linear_939_4533" x1="271.564" y1="216.736" x2="291.59" y2="216.736" gradientUnits="userSpaceOnUse">
<stop stop-color="#A1BAFF"/>
<stop offset="1" stop-color="white"/>
</linearGradient>
<linearGradient id="paint40_linear_939_4533" x1="268.077" y1="215.409" x2="273.686" y2="215.409" gradientUnits="userSpaceOnUse">
<stop stop-color="#A1BAFF"/>
<stop offset="1" stop-color="white"/>
</linearGradient>
<linearGradient id="paint41_linear_939_4533" x1="269.747" y1="217.485" x2="274.204" y2="217.485" gradientUnits="userSpaceOnUse">
<stop stop-color="#270036"/>
<stop offset="0.594" stop-color="#4F008B"/>
<stop offset="1" stop-color="#4C24B1"/>
</linearGradient>
<linearGradient id="paint42_linear_939_4533" x1="325.095" y1="180.711" x2="328.307" y2="180.711" gradientUnits="userSpaceOnUse">
<stop stop-color="#A1BAFF"/>
<stop offset="1" stop-color="white"/>
</linearGradient>
<linearGradient id="paint43_linear_939_4533" x1="270.075" y1="192.934" x2="273.672" y2="192.934" gradientUnits="userSpaceOnUse">
<stop stop-color="#A1BAFF"/>
<stop offset="1" stop-color="white"/>
</linearGradient>
<linearGradient id="paint44_linear_939_4533" x1="290.219" y1="279.871" x2="298.836" y2="279.871" gradientUnits="userSpaceOnUse">
<stop stop-color="#270036"/>
<stop offset="0.594" stop-color="#4F008B"/>
<stop offset="1" stop-color="#4C24B1"/>
</linearGradient>
<linearGradient id="paint45_linear_939_4533" x1="297.689" y1="279.916" x2="305.428" y2="279.916" gradientUnits="userSpaceOnUse">
<stop stop-color="#270036"/>
<stop offset="0.594" stop-color="#4F008B"/>
<stop offset="1" stop-color="#4C24B1"/>
</linearGradient>
<linearGradient id="paint46_linear_939_4533" x1="273.571" y1="217.437" x2="293.008" y2="217.437" gradientUnits="userSpaceOnUse">
<stop stop-color="#E19000"/>
<stop offset="0.207" stop-color="#E39504"/>
<stop offset="0.462" stop-color="#E9A410"/>
<stop offset="0.741" stop-color="#F3BD23"/>
<stop offset="1" stop-color="#FFDB3B"/>
</linearGradient>
<linearGradient id="paint47_linear_939_4533" x1="272.637" y1="200.28" x2="324.286" y2="200.28" gradientUnits="userSpaceOnUse">
<stop stop-color="#270036"/>
<stop offset="0.594" stop-color="#4F008B"/>
<stop offset="1" stop-color="#4C24B1"/>
</linearGradient>
<linearGradient id="paint48_linear_939_4533" x1="285.177" y1="229.776" x2="307.86" y2="229.776" gradientUnits="userSpaceOnUse">
<stop stop-color="#270036"/>
<stop offset="0.594" stop-color="#4F008B"/>
<stop offset="1" stop-color="#4C24B1"/>
</linearGradient>
<linearGradient id="paint49_linear_939_4533" x1="291.117" y1="212.706" x2="304.256" y2="212.706" gradientUnits="userSpaceOnUse">
<stop stop-color="#7633FF"/>
<stop offset="0.216" stop-color="#4E53FF"/>
<stop offset="0.436" stop-color="#2C6DFF"/>
<stop offset="0.646" stop-color="#1480FF"/>
<stop offset="0.839" stop-color="#058CFF"/>
<stop offset="1" stop-color="#0090FF"/>
</linearGradient>
<linearGradient id="paint50_linear_939_4533" x1="233.747" y1="299.151" x2="193.808" y2="298.962" gradientUnits="userSpaceOnUse">
<stop stop-color="#AEBDF0"/>
<stop offset="0.207" stop-color="#ACB8F1"/>
<stop offset="0.462" stop-color="#A6A9F4"/>
<stop offset="0.741" stop-color="#9C90F9"/>
<stop offset="1" stop-color="#9072FF"/>
</linearGradient>
<linearGradient id="paint51_linear_939_4533" x1="211.345" y1="255.54" x2="216.375" y2="274.277" gradientUnits="userSpaceOnUse">
<stop stop-color="#7633FF"/>
<stop offset="0.216" stop-color="#4E53FF"/>
<stop offset="0.436" stop-color="#2C6DFF"/>
<stop offset="0.646" stop-color="#1480FF"/>
<stop offset="0.839" stop-color="#058CFF"/>
<stop offset="1" stop-color="#0090FF"/>
</linearGradient>
<linearGradient id="paint52_linear_939_4533" x1="212.627" y1="232.857" x2="213.109" y2="257.232" gradientUnits="userSpaceOnUse">
<stop stop-color="#A1BAFF"/>
<stop offset="0.305" stop-color="#C9D8FF"/>
<stop offset="0.585" stop-color="#E7EDFF"/>
<stop offset="0.826" stop-color="#F9FAFF"/>
<stop offset="1" stop-color="white"/>
</linearGradient>
<linearGradient id="paint53_linear_939_4533" x1="145.21" y1="292.16" x2="66.9779" y2="291.791" gradientUnits="userSpaceOnUse">
<stop stop-color="#AEBDF0"/>
<stop offset="0.207" stop-color="#ACB8F1"/>
<stop offset="0.462" stop-color="#A6A9F4"/>
<stop offset="0.741" stop-color="#9C90F9"/>
<stop offset="1" stop-color="#9072FF"/>
</linearGradient>
<linearGradient id="paint54_linear_939_4533" x1="48.8864" y1="237.998" x2="82.188" y2="237.998" gradientUnits="userSpaceOnUse">
<stop stop-color="#A1BAFF"/>
<stop offset="0.015" stop-color="#A7BFFF"/>
<stop offset="0.09" stop-color="#C3D3FF"/>
<stop offset="0.175" stop-color="#D9E3FF"/>
<stop offset="0.274" stop-color="#EAF0FF"/>
<stop offset="0.396" stop-color="#F6F8FF"/>
<stop offset="0.563" stop-color="#FDFEFF"/>
<stop offset="1" stop-color="white"/>
</linearGradient>
<linearGradient id="paint55_linear_939_4533" x1="42.1828" y1="235.873" x2="52.418" y2="235.873" gradientUnits="userSpaceOnUse">
<stop stop-color="#7633FF"/>
<stop offset="0.159" stop-color="#7137FF"/>
<stop offset="0.353" stop-color="#6243FF"/>
<stop offset="0.568" stop-color="#4957FF"/>
<stop offset="0.794" stop-color="#2672FF"/>
<stop offset="1" stop-color="#0090FF"/>
</linearGradient>
<linearGradient id="paint56_linear_939_4533" x1="52.9677" y1="240.348" x2="84.3567" y2="240.348" gradientUnits="userSpaceOnUse">
<stop stop-color="#7633FF"/>
<stop offset="0.216" stop-color="#4E53FF"/>
<stop offset="0.436" stop-color="#2C6DFF"/>
<stop offset="0.646" stop-color="#1480FF"/>
<stop offset="0.839" stop-color="#058CFF"/>
<stop offset="1" stop-color="#0090FF"/>
</linearGradient>
<linearGradient id="paint57_linear_939_4533" x1="46.7178" y1="240.348" x2="54.0353" y2="240.348" gradientUnits="userSpaceOnUse">
<stop stop-color="#270036"/>
<stop offset="0.594" stop-color="#4F008B"/>
<stop offset="1" stop-color="#4C24B1"/>
</linearGradient>
<linearGradient id="paint58_linear_939_4533" x1="90.8001" y1="176.429" x2="101.789" y2="246.907" gradientUnits="userSpaceOnUse">
<stop stop-color="#E19000"/>
<stop offset="0.207" stop-color="#E39504"/>
<stop offset="0.462" stop-color="#E9A410"/>
<stop offset="0.741" stop-color="#F3BD23"/>
<stop offset="1" stop-color="#FFDB3B"/>
</linearGradient>
<linearGradient id="paint59_linear_939_4533" x1="104.383" y1="184.013" x2="116.024" y2="202.156" gradientUnits="userSpaceOnUse">
<stop stop-color="#E19000"/>
<stop offset="0.207" stop-color="#E39504"/>
<stop offset="0.462" stop-color="#E9A410"/>
<stop offset="0.741" stop-color="#F3BD23"/>
<stop offset="1" stop-color="#FFDB3B"/>
</linearGradient>
<linearGradient id="paint60_linear_939_4533" x1="80.7622" y1="89.9262" x2="136.315" y2="89.9262" gradientUnits="userSpaceOnUse">
<stop stop-color="#A1BAFF"/>
<stop offset="0.089" stop-color="#ACC2FF"/>
<stop offset="0.499" stop-color="#D9E3FF"/>
<stop offset="0.816" stop-color="#F5F7FF"/>
<stop offset="1" stop-color="white"/>
</linearGradient>
<linearGradient id="paint61_linear_939_4533" x1="189.033" y1="120.341" x2="253.252" y2="120.341" gradientUnits="userSpaceOnUse">
<stop stop-color="#A1BAFF"/>
<stop offset="0.089" stop-color="#ACC2FF"/>
<stop offset="0.499" stop-color="#D9E3FF"/>
<stop offset="0.816" stop-color="#F5F7FF"/>
<stop offset="1" stop-color="white"/>
</linearGradient>
</defs>
</svg>
